<svg xmlns="http://www.w3.org/2000/svg" viewBox="0 0 500 500">
  <title>MADRING Circuit - Madrid</title>
  <!-- MADRING circuit layout - Madrid GP -->
  <path
    d="M 80,250
       L 80,150
       Q 80,100 130,100
       L 250,100
       Q 300,100 320,80
       L 380,50
       Q 420,35 450,60
       L 470,100
       Q 480,130 470,160
       L 430,220
       Q 410,250 430,280
       L 470,340
       Q 485,380 460,410
       L 400,450
       Q 360,470 320,450
       L 250,400
       Q 220,380 180,400
       L 120,440
       Q 80,460 60,420
       L 50,350
       Q 45,300 60,270
       L 80,250
       Z"
    fill="none"
    stroke="#ffffff"
    stroke-width="8"
    stroke-linecap="round"
    stroke-linejoin="round"
  />
  <!-- La Monumental (banked turn) marker -->
  <circle cx="470" cy="130" r="12" fill="none" stroke="#f59e0b" stroke-width="3"/>
</svg>
